<svg xmlns="http://www.w3.org/2000/svg" viewBox="0 0 86 86">
  <defs>
    <style>
      .cls-1 {
        fill: #3acfd5;
      }

      .cls-2 {
        fill: #dcefff;
      }
    </style>
  </defs>
  <g id="Group_1311" data-name="Group 1311" transform="translate(-645 -140)">
    <circle id="Ellipse_46" data-name="Ellipse 46" class="cls-1" cx="43" cy="43" r="43" transform="translate(645 140)"/>
    <path id="stethoscope" class="cls-2" d="M61.924,36.314a7.576,7.576,0,1,0-9.624,7.3v8.054a10.238,10.238,0,0,1-20.476,0V40.137A16.341,16.341,0,0,0,46.362,23.892v-9.76a2.011,2.011,0,0,0-2.048-2.048H39.878v-.137a2.048,2.048,0,0,0-4.1,0v4.368a2.048,2.048,0,0,0,4.1,0v-.137h2.389v7.713a12.286,12.286,0,0,1-24.571,0V16.179h2.252v.137a2.048,2.048,0,0,0,4.1,0V11.948a2.048,2.048,0,0,0-4.1,0v.137h-4.3A2.011,2.011,0,0,0,13.6,14.132v9.76A16.412,16.412,0,0,0,27.729,40.137V51.671a14.333,14.333,0,0,0,28.667,0V43.617A7.555,7.555,0,0,0,61.924,36.314ZM54.348,39.8a3.481,3.481,0,1,1,3.481-3.481A3.5,3.5,0,0,1,54.348,39.8Z" transform="translate(651.876 145.116)"/>
  </g>
</svg>
