<svg xmlns="http://www.w3.org/2000/svg" viewBox="0 0 449.755 195.878">
  <defs>
    <style>
      .cls-1 {
        fill: #dcefff;
        opacity: 0.52;
      }
    </style>
  </defs>
  <path id="Path_844" data-name="Path 844" class="cls-1" d="M79.308,159.706V115.387H103.93V83.926H79.308V36.6H47.847V83.926H1.066L70.281-31.8H34.169L-39.7,92.133v23.254H47.847v44.319ZM186.549-33.984c-42.677,0-64.29,37.48-64.29,97.939s22.159,97.939,64.837,97.939c42.4,0,63.469-36.932,63.469-97.939,0-30.367-5.471-54.168-16.141-71.676S207.614-33.984,186.549-33.984Zm-30.64,97.939c0-46.781,9.028-68.393,30.64-68.393,21.886,0,30.64,20.518,30.64,68.393,0,48.149-8.481,68.667-30.093,68.667C166.3,132.622,155.909,109.642,155.909,63.955Zm229.528,95.751V115.387h24.622V83.926H385.437V36.6H353.976V83.926H307.2L376.409-31.8H340.3L266.433,92.133v23.254h87.543v44.319Z" transform="translate(39.696 33.984)"/>
</svg>
