<svg id="pdf__x28_копия_x29_" xmlns="http://www.w3.org/2000/svg" viewBox="0 0 52 64">
  <defs>
    <style>
      .cls-1 {
        fill: #dcefff;
      }

      .cls-2 {
        fill: #8592a5;
        fill-rule: evenodd;
      }

      .cls-3 {
        fill: #fff;
      }
    </style>
  </defs>
  <g id="Rectangle_34_2_">
    <g id="Group_921" data-name="Group 921">
      <rect id="Rectangle_992" data-name="Rectangle 992" class="cls-1" width="46" height="62" transform="translate(1 1)"/>
    </g>
  </g>
  <g id="icon_1_">
    <g id="Group_922" data-name="Group 922">
      <path id="Path_274" data-name="Path 274" class="cls-2" d="M50,8H48V2a2.006,2.006,0,0,0-2-2H2A2.006,2.006,0,0,0,0,2V62a2.006,2.006,0,0,0,2,2H46a2.006,2.006,0,0,0,2-2V26h2a2.006,2.006,0,0,0,2-2V10A2.006,2.006,0,0,0,50,8ZM46,8H22a2.006,2.006,0,0,0-2,2V24a2.006,2.006,0,0,0,2,2H46V62H2V2H46ZM16.9,54a10.67,10.67,0,0,0,1.6-3.9A25.929,25.929,0,0,1,28,48c.7.6,1.6,1.5,2.4,2.2,2.1,1.8,3.7,2.3,5.4,1.4a2.312,2.312,0,0,0,1.1-1.9v-.2a3.389,3.389,0,0,0-3-3.3,25.968,25.968,0,0,0-5.5-.1A81.257,81.257,0,0,1,21.2,40a14.83,14.83,0,0,0-.1-4.7c-.9-3-4.5-3.1-5,.1-.4,2.4,2.3,4.7,3,5.3-.5,2.3-1.5,6.1-2,8.3-.7.3-1.5.7-2.3,1.1a5.247,5.247,0,0,0-2.7,3.7C12.1,57.1,15.5,56.3,16.9,54Zm14-6h2.3a2.9,2.9,0,0,1,1.6.6c.2.2.2.3.2.6-.2.8-.5.8-.9.8s-1-.2-1-.3A8.68,8.68,0,0,1,30.9,48ZM20.7,42l5.1,4.4a26.978,26.978,0,0,0-3.6.6,25.713,25.713,0,0,0-2.9.9ZM19,37.9a3.7,3.7,0,0,1-1.1-2.4c.1-.4.2-.5.5-.5a.587.587,0,0,1,.6.4,5.724,5.724,0,0,1,.3,2.9A1.866,1.866,0,0,0,19,37.9Zm-4.8,15A5.1,5.1,0,0,1,16.4,51c-1,2.7-2,3-2.4,3h0A1.612,1.612,0,0,1,14.2,52.9Z"/>
    </g>
  </g>
  <g id="PDF__x28_копия_x29_2" data-name="PDF__x28_копия_x29_">
    <g id="Group_923" data-name="Group 923">
      <path id="Path_275" data-name="Path 275" class="cls-3" d="M28.3,18.1v2.4H26.6V13.2h2.6a4.438,4.438,0,0,1,1.3.2,1.934,1.934,0,0,1,.9.5,2.177,2.177,0,0,1,.5.8,2.92,2.92,0,0,1,.2.9,2.958,2.958,0,0,1-.2,1,2.177,2.177,0,0,1-.5.8,1.934,1.934,0,0,1-.9.5,5.067,5.067,0,0,1-1.3.2h-.9Zm0-1.3h.9c.4,0,.8-.1.9-.3a1.222,1.222,0,0,0,.3-.9.9.9,0,0,0-.1-.5c-.1-.1-.1-.3-.2-.4a.52.52,0,0,0-.4-.2,1.083,1.083,0,0,0-.6-.1h-.9v2.4Z"/>
      <path id="Path_276" data-name="Path 276" class="cls-3" d="M39.6,16.9a4.013,4.013,0,0,1-.3,1.5,4.184,4.184,0,0,1-.8,1.2,3.6,3.6,0,0,1-1.2.8,4.013,4.013,0,0,1-1.5.3H33V13.4h2.8a3.339,3.339,0,0,1,1.5.3,2.55,2.55,0,0,1,1.2.8,3.6,3.6,0,0,1,.8,1.2C39.5,15.8,39.6,16.3,39.6,16.9Zm-1.8,0a3.083,3.083,0,0,0-.1-1,1.612,1.612,0,0,0-.4-.7,2.651,2.651,0,0,0-.6-.5,2.388,2.388,0,0,0-.9-.2H34.7v4.7h1.1a2.92,2.92,0,0,0,.9-.2,1.024,1.024,0,0,0,.6-.5,1.612,1.612,0,0,0,.4-.7A2.769,2.769,0,0,0,37.8,16.9Z"/>
      <path id="Path_277" data-name="Path 277" class="cls-3" d="M45.1,13.2v1.3h-3v1.8h2.5v1.3H42.1v2.8H40.4V13.1h4.7Z"/>
    </g>
  </g>
</svg>
