<svg id="doc__x28_копия_x29_" xmlns="http://www.w3.org/2000/svg" viewBox="0 0 52 64">
  <defs>
    <style>
      .cls-1 {
        fill: #dcefff;
      }

      .cls-2 {
        fill: #8592a5;
        fill-rule: evenodd;
      }

      .cls-3 {
        fill: #fff;
      }
    </style>
  </defs>
  <g id="Rectangle_29_2_">
    <g id="Group_924" data-name="Group 924">
      <rect id="Rectangle_993" data-name="Rectangle 993" class="cls-1" width="46" height="62" transform="translate(1 1)"/>
    </g>
  </g>
  <g id="icon_1_">
    <g id="Group_925" data-name="Group 925">
      <path id="Path_278" data-name="Path 278" class="cls-2" d="M38,40H10v2H38Zm0-6H10v2H38Zm0,12H10v2H38ZM50,8H48V2a2.006,2.006,0,0,0-2-2H2A2.006,2.006,0,0,0,0,2V62a2.006,2.006,0,0,0,2,2H46a2.006,2.006,0,0,0,2-2V26h2a2.006,2.006,0,0,0,2-2V10A2.006,2.006,0,0,0,50,8ZM46,8H22a2.006,2.006,0,0,0-2,2V24a2.006,2.006,0,0,0,2,2H46V62H2V2H46ZM25,52H10v2H25Z"/>
    </g>
  </g>
  <g id="DOC__x28_копия_x29_2" data-name="DOC__x28_копия_x29_">
    <g id="Group_926" data-name="Group 926">
      <path id="Path_279" data-name="Path 279" class="cls-3" d="M31.9,16.9a4.013,4.013,0,0,1-.3,1.5,4.184,4.184,0,0,1-.8,1.2,3.6,3.6,0,0,1-1.2.8,4.013,4.013,0,0,1-1.5.3H25.3V13.4h2.8a3.339,3.339,0,0,1,1.5.3,2.55,2.55,0,0,1,1.2.8,3.6,3.6,0,0,1,.8,1.2C31.8,15.8,31.9,16.3,31.9,16.9Zm-1.7,0a3.083,3.083,0,0,0-.1-1,1.612,1.612,0,0,0-.4-.7,2.651,2.651,0,0,0-.6-.5,2.388,2.388,0,0,0-.9-.2H27v4.7h1.1A2.92,2.92,0,0,0,29,19a1.024,1.024,0,0,0,.6-.5,1.612,1.612,0,0,0,.4-.7A2.92,2.92,0,0,0,30.2,16.9Z"/>
      <path id="Path_280" data-name="Path 280" class="cls-3" d="M39.9,16.9a4.013,4.013,0,0,1-.3,1.5,3.166,3.166,0,0,1-.8,1.2,3.6,3.6,0,0,1-1.2.8,4.013,4.013,0,0,1-1.5.3,3.339,3.339,0,0,1-1.5-.3,3.677,3.677,0,0,1-2-2,3.653,3.653,0,0,1-.3-1.5,4.013,4.013,0,0,1,.3-1.5,3.166,3.166,0,0,1,.8-1.2,3.6,3.6,0,0,1,1.2-.8,4.013,4.013,0,0,1,1.5-.3,3.339,3.339,0,0,1,1.5.3,3.677,3.677,0,0,1,2,2A3.339,3.339,0,0,1,39.9,16.9Zm-1.7,0a3.083,3.083,0,0,0-.1-1,1.612,1.612,0,0,0-.4-.7,2.651,2.651,0,0,0-.6-.5,2.388,2.388,0,0,0-.9-.2,2.92,2.92,0,0,0-.9.2,1.024,1.024,0,0,0-.6.5,1.612,1.612,0,0,0-.4.7,3.083,3.083,0,0,0-.1,1,3.083,3.083,0,0,0,.1,1,1.612,1.612,0,0,0,.4.7,2.651,2.651,0,0,0,.6.5,2.388,2.388,0,0,0,.9.2,2.92,2.92,0,0,0,.9-.2,1.024,1.024,0,0,0,.6-.5,1.612,1.612,0,0,0,.4-.7C38.1,17.5,38.2,17.2,38.2,16.9Z"/>
      <path id="Path_281" data-name="Path 281" class="cls-3" d="M45.6,18.6h.1a.1.1,0,0,1,.1.1l.7.7a3.126,3.126,0,0,1-1.1.9,3.808,3.808,0,0,1-1.6.3,3.653,3.653,0,0,1-1.5-.3,2.836,2.836,0,0,1-1.1-.8,3.458,3.458,0,0,1-.7-1.2,3.645,3.645,0,0,1-.2-1.5,4.013,4.013,0,0,1,.3-1.5,3.166,3.166,0,0,1,.8-1.2,3.6,3.6,0,0,1,1.2-.8,4.013,4.013,0,0,1,1.5-.3,2.2,2.2,0,0,1,.8.1,1.854,1.854,0,0,1,.7.2l.6.3a1.756,1.756,0,0,1,.5.4l-.7.9-.1.1a.349.349,0,0,1-.2.1h-.2c-.1,0-.1-.1-.2-.1s-.1-.1-.2-.1-.2-.1-.3-.1-.2-.1-.3-.1H44a1.884,1.884,0,0,0-.8.2,1.794,1.794,0,0,0-.7.5,1.612,1.612,0,0,0-.4.7,2.6,2.6,0,0,0,0,2,1.612,1.612,0,0,0,.4.7c.2.2.4.3.6.5a1.884,1.884,0,0,0,.8.2h.4a.756.756,0,0,0,.4-.1c.1,0,.2-.1.3-.1.1-.1.2-.1.3-.2l.1-.1C45.5,18.6,45.5,18.6,45.6,18.6Z"/>
    </g>
  </g>
</svg>
