<svg xmlns="http://www.w3.org/2000/svg" xmlns:xlink="http://www.w3.org/1999/xlink" viewBox="0 0 89.895 32">
  <defs>
    <style>
      .cls-1 {
        fill: url(#radial-gradient);
      }

      .cls-2 {
        fill: #0068a2;
      }

      .cls-3 {
        fill: #ec008c;
      }
    </style>
    <radialGradient id="radial-gradient" cx="24.952" cy="15.376" r="33.69" gradientTransform="translate(9.6 5.916) scale(0.616 0.616)" gradientUnits="userSpaceOnUse">
      <stop offset="0.27" stop-color="#00aeef"/>
      <stop offset="0.399" stop-color="#00a9ea"/>
      <stop offset="1" stop-color="#0068a2"/>
    </radialGradient>
  </defs>
  <g id="Group_1126" data-name="Group 1126" transform="translate(0.034 0.022)">
    <path id="Path_576" data-name="Path 576" class="cls-1" d="M32.17,15.492c-3.011,4.969-7.4,12.1-13.776,14.053,5.194-2.484,8.908-8.281,11.819-13.475C34.579,8.29,38.268,1.565,43.236.661,34.629-.819,30.489,7.763,26.6,15.467c-2.359,4.642-5.9,10.891-11.167,13.551,3.864-2.635,6.449-7.629,8.607-11.97,2.76-5.5,5.119-12.371,10.213-14.1-7.152-.3-10.439,5.521-13.45,12.7-1.581,3.739-3.413,9.812-7.327,12.923-2.183-2.133-2.384-6.6-.05-13.827H10.112C7.854,21.414,8.506,27.361,12.12,29.494a3.123,3.123,0,0,1-.5.251C8.506,28.265,5.9,23.823,8.406,14.739H5.044C3.337,23.2,5.621,28.691,10.112,30.3a.372.372,0,0,1-.176.025c-6.926-.376-7.553-9.761-6.424-15.583H.276c-.828,5.194-.326,13.375,5.671,15.483a8.81,8.81,0,0,0,1.23.3h0a11.465,11.465,0,0,0,2.434.226h7.352c8,.05,14.68-7.629,18.871-14.379C40.953,8.064,45.394,1.515,49.936.235,40.677-1.748,36.586,8.189,32.17,15.492Z" transform="translate(0 0)"/>
    <path id="Path_577" data-name="Path 577" class="cls-2" d="M194.431,29.037h3.538V25.8H199.6v8.356h-1.631V30.442h-3.538v3.714H192.8V25.8h1.631Z" transform="translate(-144.445 -19.342)"/>
    <path id="Path_578" data-name="Path 578" class="cls-2" d="M228.956,25.2v5.6l4.592-5.8h1.129v8.532h-1.631V27.911l-4.617,5.8H227.3V25.2Z" transform="translate(-170.287 -18.743)"/>
    <path id="Path_579" data-name="Path 579" class="cls-2" d="M266.006,29.338l3.061-3.538h2.058l-3.538,3.864,3.739,4.492h-2.158l-2.961-3.739-.176.176v3.563H264.4V25.8h1.631v3.538Z" transform="translate(-198.077 -19.342)"/>
    <path id="Path_580" data-name="Path 580" class="cls-2" d="M300.347,31.875h-3.363l-.728,1.757H294.5l3.613-8.532h1.23l3.513,8.532H301.1Zm-.477-1.33-1.179-3.011-1.2,3.011Z" transform="translate(-220.624 -18.818)"/>
    <path id="Path_581" data-name="Path 581" class="cls-2" d="M183.249,75.131a4.44,4.44,0,0,1-2.058.477,4.243,4.243,0,0,1-4.391-4.341A4.386,4.386,0,0,1,178.13,68a4.308,4.308,0,0,1,3.061-1.1,4.385,4.385,0,0,1,2.058.5v1.907a2.627,2.627,0,0,0-2.008-.928,2.887,2.887,0,0,0,.075,5.772,2.541,2.541,0,0,0,1.957-.9v1.882Z" transform="translate(-132.46 -50.128)"/>
    <path id="Path_582" data-name="Path 582" class="cls-2" d="M215.1,67.7v8.356h-1.631V69.08h-3.337v6.951H208.5V67.7Z" transform="translate(-156.205 -50.728)"/>
    <path id="Path_583" data-name="Path 583" class="cls-2" d="M244.909,67.7a3.086,3.086,0,0,1,2.208.627,2.641,2.641,0,0,1,.853,2.007,2.681,2.681,0,0,1-.678,1.857,2.885,2.885,0,0,1-2.108.728h-1.054v3.087H242.5V67.7Zm-.8,3.839h.652a1.718,1.718,0,0,0,1.054-.251,1.214,1.214,0,0,0,.452-.979,1.2,1.2,0,0,0-.452-.954,2.009,2.009,0,0,0-1.154-.251h-.552Z" transform="translate(-181.673 -50.728)"/>
    <path id="Path_584" data-name="Path 584" class="cls-2" d="M270.631,67.1v5.6l4.592-5.8h1.129v8.532h-1.631V69.811l-4.592,5.8H269V67.1Z" transform="translate(-201.523 -50.128)"/>
    <path id="Path_585" data-name="Path 585" class="cls-2" d="M307.531,70.912h3.538V67.7H312.7v8.356h-1.631V72.317h-3.538v3.714H305.9V67.7h1.631Z" transform="translate(-229.163 -50.728)"/>
    <path id="Path_586" data-name="Path 586" class="cls-2" d="M344.942,69.08h-2.81v6.951H340.5V67.7h4.442Z" transform="translate(-255.081 -50.728)"/>
    <path id="Path_587" data-name="Path 587" class="cls-3" d="M125.23,101.2v1.43H123.8v2.284h1.43v1.656h2.284v-1.656h1.43V102.63h-1.43V101.2Z" transform="translate(-92.759 -75.821)"/>
    <g id="Group_1123" data-name="Group 1123" transform="translate(41.455 26.357)">
      <path id="Path_588" data-name="Path 588" class="cls-3" d="M167.182,110.2l1.079,3.137h-.577l-.853-2.735h-.1l-.853,2.735H165.3l1.079-3.137Z" transform="translate(-165.3 -108.92)"/>
      <path id="Path_589" data-name="Path 589" class="cls-3" d="M184.986,113.082h-.527l-.025-.527a1.18,1.18,0,0,1-1.054.6,1.3,1.3,0,0,1-1-.452,1.726,1.726,0,0,1-.376-1.179,1.864,1.864,0,0,1,.376-1.179,1.159,1.159,0,0,1,1-.452,1.133,1.133,0,0,1,1.054.6l.025-.5h.527Zm-.728-2.384a.854.854,0,0,0-.753-.4.878.878,0,0,0-.753.4,1.808,1.808,0,0,0,0,1.656.878.878,0,0,0,.753.4.854.854,0,0,0,.753-.4,1.448,1.448,0,0,0,.2-.828A1.745,1.745,0,0,0,184.258,110.7Z" transform="translate(-177.809 -108.691)"/>
      <path id="Path_590" data-name="Path 590" class="cls-3" d="M202.635,105.551h-.954a.985.985,0,0,0-.828.3,1.463,1.463,0,0,0-.251.9v.151a1.086,1.086,0,0,1,1-.527,1.355,1.355,0,0,1,1.054.477,1.833,1.833,0,0,1,.351,1.129,1.755,1.755,0,0,1-.351,1.1,1.4,1.4,0,0,1-1.154.5,1.371,1.371,0,0,1-1.179-.552,2.264,2.264,0,0,1-.326-1.355v-.452a2.588,2.588,0,0,1,.4-1.656,1.487,1.487,0,0,1,1.33-.477h.9Zm-.351,1.631a.854.854,0,0,0-.753-.376.9.9,0,0,0-.753.376,1.386,1.386,0,0,0-.2.778,1.464,1.464,0,0,0,.2.8.865.865,0,0,0,.753.376.854.854,0,0,0,.753-.376,1.382,1.382,0,0,0,.176-.8A1.42,1.42,0,0,0,202.284,107.182Z" transform="translate(-191.292 -105.099)"/>
      <path id="Path_591" data-name="Path 591" class="cls-3" d="M217.976,110.3a1.466,1.466,0,0,1,1.154-.5,1.557,1.557,0,0,1,1.154.5,1.958,1.958,0,0,1,0,2.309,1.511,1.511,0,0,1-1.154.5,1.557,1.557,0,0,1-1.154-.5,1.958,1.958,0,0,1,0-2.309Zm.376,1.932a.877.877,0,0,0,.778.427.909.909,0,0,0,.778-.427,1.558,1.558,0,0,0,.176-.8,1.47,1.47,0,0,0-.176-.778.923.923,0,0,0-1.556,0,1.522,1.522,0,0,0-.176.778A1.557,1.557,0,0,0,218.353,112.234Z" transform="translate(-204.476 -108.62)"/>
      <path id="Path_592" data-name="Path 592" class="cls-3" d="M236.327,109.9l.025.5a1.232,1.232,0,0,1,1.054-.6,1.3,1.3,0,0,1,1,.452,1.726,1.726,0,0,1,.376,1.179,1.864,1.864,0,0,1-.376,1.179,1.159,1.159,0,0,1-1,.452,1.18,1.18,0,0,1-1.054-.6v1.782H235.8V109.85h.527Zm.2,2.359a.854.854,0,0,0,.753.4.912.912,0,0,0,.753-.4,1.808,1.808,0,0,0,0-1.656.878.878,0,0,0-.753-.4.854.854,0,0,0-.753.4,1.416,1.416,0,0,0-.2.8A1.482,1.482,0,0,0,236.528,112.259Z" transform="translate(-218.109 -108.62)"/>
      <path id="Path_593" data-name="Path 593" class="cls-3" d="M256.386,113.082h-.527l-.025-.527a1.18,1.18,0,0,1-1.054.6,1.3,1.3,0,0,1-1-.452,1.726,1.726,0,0,1-.376-1.179,1.864,1.864,0,0,1,.376-1.179,1.159,1.159,0,0,1,1-.452,1.133,1.133,0,0,1,1.054.6l.025-.5h.527Zm-.728-2.384a.854.854,0,0,0-.753-.4.878.878,0,0,0-.753.4,1.808,1.808,0,0,0,0,1.656.878.878,0,0,0,.753.4.854.854,0,0,0,.753-.4,1.448,1.448,0,0,0,.2-.828A1.5,1.5,0,0,0,255.658,110.7Z" transform="translate(-231.292 -108.691)"/>
      <path id="Path_594" data-name="Path 594" class="cls-3" d="M272.959,110.2v.427h-.9v2.685H271.5v-2.685h-.9V110.2Z" transform="translate(-244.176 -108.92)"/>
      <path id="Path_595" data-name="Path 595" class="cls-3" d="M285.176,110.3a1.466,1.466,0,0,1,1.154-.5,1.558,1.558,0,0,1,1.154.5,1.958,1.958,0,0,1,0,2.309,1.511,1.511,0,0,1-1.154.5,1.557,1.557,0,0,1-1.154-.5,1.958,1.958,0,0,1,0-2.309Zm.376,1.932a.877.877,0,0,0,.778.427.909.909,0,0,0,.778-.427,1.558,1.558,0,0,0,.176-.8,1.47,1.47,0,0,0-.176-.778.923.923,0,0,0-1.556,0,1.522,1.522,0,0,0-.176.778A1.558,1.558,0,0,0,285.553,112.234Z" transform="translate(-254.813 -108.62)"/>
      <path id="Path_596" data-name="Path 596" class="cls-3" d="M303.527,109.9l.025.5a1.232,1.232,0,0,1,1.054-.6,1.3,1.3,0,0,1,1,.452,1.726,1.726,0,0,1,.376,1.179,1.864,1.864,0,0,1-.376,1.179,1.194,1.194,0,0,1-1,.452,1.18,1.18,0,0,1-1.054-.6v1.782H303V109.85h.527Zm.2,2.359a.885.885,0,0,0,.753.4.912.912,0,0,0,.753-.4,1.808,1.808,0,0,0,0-1.656.878.878,0,0,0-.753-.4.854.854,0,0,0-.753.4,1.382,1.382,0,0,0-.176.8A1.292,1.292,0,0,0,303.728,112.259Z" transform="translate(-268.446 -108.62)"/>
      <path id="Path_597" data-name="Path 597" class="cls-3" d="M321.427,110.05v1.731a1.351,1.351,0,0,0,.125.678.654.654,0,0,0,.6.326.779.779,0,0,0,.678-.326,1.437,1.437,0,0,0,.2-.853v-1.581h.552v3.137h-.527l-.025-.5a.988.988,0,0,1-.351.376,1.216,1.216,0,0,1-.652.176,1.074,1.074,0,0,1-.9-.427,1.913,1.913,0,0,1-.226-1.1V110h.527Z" transform="translate(-281.854 -108.77)"/>
      <path id="Path_598" data-name="Path 598" class="cls-3" d="M339.41,113.234h-.527v-1.28h-.728l-.7,1.28H336.8l.828-1.33a.748.748,0,0,1-.452-.2.857.857,0,0,1-.251-.678.942.942,0,0,1,.376-.753,1.823,1.823,0,0,1,1-.176h1.129v3.137Zm-1.179-2.71a.993.993,0,0,0-.552.1.554.554,0,0,0,0,.853.993.993,0,0,0,.552.1h.627v-1.054Z" transform="translate(-293.764 -108.842)"/>
    </g>
  </g>
</svg>
