<svg xmlns="http://www.w3.org/2000/svg" viewBox="0 0 231.863 24">
  <defs>
    <style>
      .cls-1 {
        fill: #fff;
        fill-rule: evenodd;
      }
    </style>
  </defs>
  <g id="Group_1032" data-name="Group 1032" transform="translate(1411.754 297.143)">
    <path id="Path_24" data-name="Path 24" class="cls-1" d="M116.762,68.288H102.707V79.6H99.8V57.1h2.827v9.436h14.055v-9.4h2.747v22.5H116.8C116.762,75.893,116.762,72.23,116.762,68.288Z" transform="translate(-1511.556 -353.386)"/>
    <path id="Path_26" data-name="Path 26" class="cls-1" d="M248.2,79.229c-2.628.677-4.1-.119-5.495-2.031a74.469,74.469,0,0,0-8.282-9.237V79.309H231.6V56.852h2.668V67.4c1.035-.836,1.712-1.274,2.27-1.832,2.429-2.469,4.9-4.937,7.247-7.485.956-1.075,1.951-1.672,3.265-1.274-3.146,3.225-6.371,6.53-9.636,9.874C241,70.947,244.54,75.009,248.2,79.229Z" transform="translate(-1590.878 -353.138)"/>
    <path id="Path_28" data-name="Path 28" class="cls-1" d="M296.483,78.553H293.1c-1-2.548-2.031-5.057-2.986-7.6a1.645,1.645,0,0,0-1.871-1.274q-2.986.119-5.972,0a1.553,1.553,0,0,0-1.752,1.194C279.8,72.9,279,74.89,278.287,76.92c-.637,1.792-.6,1.792-2.787,1.473q5.136-11.587,10.273-23.054c.239,0,.438-.04.677-.04C289.794,62.985,293.1,70.669,296.483,78.553ZM285.375,59.72c-1.314,3.066-2.429,5.654-3.584,8.441h7.247C287.8,65.334,286.649,62.746,285.375,59.72Z" transform="translate(-1617.298 -352.302)"/>
    <path id="Path_30" data-name="Path 30" class="cls-1" d="M164.9,57h2.787V74.041c.159.08.319.119.478.2,4.7-4.7,8.72-9.914,11.149-16.524.319,4.579-10.711,21.222-14.374,21.9C164.9,72.13,164.9,64.645,164.9,57Z" transform="translate(-1550.735 -353.325)"/>
    <path id="Path_33" data-name="Path 33" class="cls-1" d="M179.5,75.988c4.34-6.371,8.68-12.741,13.1-19.072.279-.4.956-.557,1.672-.916V78.934h-2.747v-17.8a1.941,1.941,0,0,1-.438-.159c-3.743,5.1-7.525,10.153-11.268,15.25C179.7,76.147,179.619,76.067,179.5,75.988Z" transform="translate(-1559.522 -352.724)"/>
    <path id="Path_23" data-name="Path 23" class="cls-1" d="M158.407,143.256H155.5V120.8h19.669v22.5h-2.747v-20.9H158.407Z" transform="translate(-1444.606 -417.252)"/>
    <path id="Path_25" data-name="Path 25" class="cls-1" d="M335.5,120.9h2.787v9.357h14.055V120.9h2.708v22.417h-2.708V132.049H338.287v11.268H335.5Z" transform="translate(-1552.937 -417.312)"/>
    <path id="Path_27" data-name="Path 27" class="cls-1" d="M223.627,132.462v10.193H220.8V119.8c3.822.319,7.565.438,11.308.956,1.911.279,2.907,1.871,3.066,3.822.2,2.548-.279,4.977-2.707,6.132a30.351,30.351,0,0,1-6.331,1.752A17.524,17.524,0,0,1,223.627,132.462Zm.08-1a35.911,35.911,0,0,0,5.614-1.115,4.965,4.965,0,0,0,2.707-5.813c-.478-2.11-1.911-3.145-4.579-3.225-1.234-.04-2.469,0-3.783,0C223.707,124.618,223.707,127.763,223.707,131.466Z" transform="translate(-1483.906 -416.65)"/>
    <path id="Path_29" data-name="Path 29" class="cls-1" d="M114.693,120.433c-.279,1.075-.478,1.832-.637,2.469a25.79,25.79,0,0,0-4.738-2.27,8.278,8.278,0,0,0-8.72,2.907c-3.066,3.623-3.9,10.591-1.672,14.055,0-6.888,1.672-10.91,5.216-11.547-.6.557-.836.836-1.115,1.075a8.612,8.612,0,0,0-2.986,10.432c1.354,3.225,4.221,4.738,8.123,3.942a50.2,50.2,0,0,0,6.092-2.07c-.279.637-.358,1.513-.8,1.832-5.813,4.1-15.608.836-17.758-5.853-3.066-9.476,3.942-17.639,13.816-16.165C111.229,119.478,112.861,120,114.693,120.433Z" transform="translate(-1408.179 -416.209)"/>
    <path id="Path_31" data-name="Path 31" class="cls-1" d="M281.974,122.335c-.438,5.375-10.989,21.063-14.374,21.5V121.3h2.787v17.081C275.444,133.763,279.545,128.626,281.974,122.335Z" transform="translate(-1512.072 -417.553)"/>
    <path id="Path_32" data-name="Path 32" class="cls-1" d="M403.467,143.1H400.6V120.6h11.547c.04.518.04,1.035.08,1.593h-8.76Z" transform="translate(-1592.117 -417.132)"/>
    <path id="Path_34" data-name="Path 34" class="cls-1" d="M283.6,139.671c1.155-1.672,2.27-3.345,3.424-5.017,2.946-4.3,5.893-8.64,8.879-12.9a8.03,8.03,0,0,1,1.672-1.354,3.585,3.585,0,0,1,.358.4v22.5h-2.668V125.576c-.159-.08-.358-.159-.518-.239-3.623,4.858-7.207,9.715-10.83,14.573A2.211,2.211,0,0,1,283.6,139.671Z" transform="translate(-1521.702 -417.012)"/>
  </g>
</svg>
