<svg xmlns="http://www.w3.org/2000/svg" viewBox="0 0 211 73.025">
  <defs>
    <style>
      .cls-1, .cls-2 {
        fill: #fff;
      }

      .cls-1 {
        font-size: 11px;
        font-family: Circe-Light, Circe;
        font-weight: 300;
        letter-spacing: 0.05em;
        opacity: 0.65;
      }
    </style>
  </defs>
  <g id="Group_1288" data-name="Group 1288" transform="translate(-75 -65.511)">
    <text id="C_2003_ГОДА" data-name="C 2003 ГОДА" class="cls-1" transform="translate(213 86)"><tspan x="0" y="11">C 2003 ГОДА</tspan></text>
    <path id="Union_30" data-name="Union 30" class="cls-2" d="M39.409,65.189C36.274,55.5,43.44,47.151,53.538,48.658c1.751.244,3.42.774,5.294,1.221-.285,1.1-.489,1.873-.652,2.525a26.389,26.389,0,0,0-4.845-2.321,8.465,8.465,0,0,0-8.917,2.972c-3.135,3.705-3.99,10.831-1.71,14.373,0-7.044,1.71-11.157,5.334-11.808-.611.57-.855.855-1.14,1.1a8.807,8.807,0,0,0-3.054,10.668c1.384,3.3,4.316,4.845,8.306,4.031a51.328,51.328,0,0,0,6.23-2.117c-.285.652-.366,1.547-.814,1.873a10.67,10.67,0,0,1-6.193,1.85C46.273,73.025,40.942,69.958,39.409,65.189ZM127.4,72.437V54.318c-.163-.081-.366-.163-.529-.244-3.705,4.967-7.37,9.935-11.075,14.9a2.257,2.257,0,0,1-.326-.244c1.181-1.71,2.321-3.421,3.5-5.13,3.013-4.4,6.026-8.836,9.08-13.193a8.217,8.217,0,0,1,1.71-1.384,3.641,3.641,0,0,1,.366.407V72.437ZM108.955,49.391h2.85V66.859c5.171-4.723,9.365-9.976,11.849-16.409-.448,5.5-11.238,21.539-14.7,21.988Zm-28.34,22.8V50.816H66.283V72.152H63.31V49.187H83.425V72.193Zm73.211-.041V60.629H139.453V72.152H136.6V49.228h2.85V58.8h14.373V49.228h2.769V72.152Zm-63.927,0V48.78c3.909.326,7.736.448,11.564.977,1.954.285,2.972,1.914,3.135,3.909.2,2.606-.285,5.09-2.769,6.271a31.051,31.051,0,0,1-6.474,1.791,17.881,17.881,0,0,1-2.565,0V72.152Zm2.932-21.825c.041,3.38.041,6.6.041,10.383a36.752,36.752,0,0,0,5.741-1.14,5.078,5.078,0,0,0,2.769-5.945c-.489-2.158-1.955-3.216-4.683-3.3-.421-.014-.842-.018-1.265-.018C94.586,50.309,93.727,50.327,92.831,50.327ZM163.11,72.111V49.106h11.808c.041.529.041,1.059.082,1.629h-8.958V72.111ZM18.765,69.261c-1.954-1.059-3.827-2.2-5.782-3.217s-3.949-1.914-5.9-3.013a29.543,29.543,0,0,1,3.705,1.059c2.932,1.221,5.823,2.647,8.754,3.868a17.081,17.081,0,0,0,11.2.733,2.753,2.753,0,0,0,.163-.611c.407-3.868.366-3.909-3.339-3.868-6.311.081-8.632-3.42-5.985-9.162a44.461,44.461,0,0,1,3.543-5.985c3.542-5.416,5.66-11.157,4.967-17.753a2.8,2.8,0,0,1,.692-1.832c.774-1.058,1.018-2.036.081-3.135a3.982,3.982,0,0,1-.692-4.031c.733-2.443,1.222-4.968,1.751-7.451.366-1.548-.244-2.362-1.873-2.28-2.484.122-5.008.122-7.492.407a17.88,17.88,0,0,0-3.746,1.3c-.774-.733-1.71-1.67-2.728-2.484-1.1-.855-2-.611-2.036.774a16.7,16.7,0,0,0,.57,5.13C15.793,22.15,18.276,25.937,21,29.6a11.382,11.382,0,0,1,1.751,3.339,2.716,2.716,0,0,1-1.547,3.583c-2.769,1.425-3.339,4.234-3.624,6.922a40.508,40.508,0,0,0,.122,6.271c.041.855.2,1.669.326,2.525a1.733,1.733,0,0,1-.448.081,7.813,7.813,0,0,1-.366-1.3c-.081-3.665-.326-7.329-.122-10.953A64.926,64.926,0,0,0,11.11,10.1,16.259,16.259,0,0,0,4.025,2.239a21.564,21.564,0,0,1,.163,3.095C3.821,10.424,3.537,15.513,2.966,20.6,1.948,29.643,1.582,38.56,5.125,47.192A35.139,35.139,0,0,0,25.076,67.225a2.026,2.026,0,0,1,.774.53A34.557,34.557,0,0,1,7.527,57.127,28.783,28.783,0,0,1,.035,36.035,146.462,146.462,0,0,1,1.908,20.318C2.885,13.64,4.962,7,1.948,0c6.6,1.67,12.541,3.868,16.694,9,2.158,2.687,3.99,3.542,7.289,2.036a11.143,11.143,0,0,1,7.981-.366c-2.484,5.823-2.28,11.849-2.158,17.916.163,8.429-1.3,16.531-5.538,23.983a17.856,17.856,0,0,0-1.548,3.868,5.208,5.208,0,0,0,1.71,5.823c1.67,1.384,3.5.733,5.252-.081.489-.285,1.018-.57,1.832-.977,0,3.094.041,5.945-.041,8.8,0,.407-.774,1.059-1.3,1.14a21.562,21.562,0,0,1-4.269.44A18.894,18.894,0,0,1,18.765,69.261Zm86.892-25.2a76.14,76.14,0,0,0-8.469-9.447v11.6H94.3V23.25h2.728V34.04c1.059-.855,1.751-1.3,2.321-1.873,2.484-2.525,5.008-5.049,7.411-7.655.977-1.1,2-1.71,3.339-1.3-3.216,3.3-6.515,6.678-9.853,10.1,3.665,4.357,7.288,8.51,11.035,12.826a6.936,6.936,0,0,1-1.724.243C107.88,46.377,106.745,45.549,105.657,44.057ZM67.138,23.209h2.85V40.636c.163.081.326.122.488.2,4.8-4.8,8.917-10.139,11.4-16.9.326,4.683-10.953,21.7-14.7,22.395C67.138,38.682,67.138,31.027,67.138,23.209Zm45.034,22.924q5.253-11.849,10.505-23.576c.244,0,.448-.041.692-.041,3.42,7.859,6.8,15.717,10.261,23.779h-3.461c-1.018-2.606-2.076-5.171-3.054-7.777a1.682,1.682,0,0,0-1.914-1.3q-3.054.122-6.108,0a1.587,1.587,0,0,0-1.792,1.221c-.733,2.077-1.547,4.112-2.28,6.189-.458,1.289-.574,1.671-1.382,1.671A11.8,11.8,0,0,1,112.172,46.133Zm6.434-10.465h7.411c-1.263-2.891-2.443-5.538-3.746-8.632C120.926,30.172,119.786,32.819,118.605,35.669ZM58.017,46.3c-.041-3.827-.041-7.573-.041-11.6H43.6V46.255H40.631V23.25h2.891V32.9H57.895V23.291H60.7V46.3Zm27.363-.041v-18.2a2.005,2.005,0,0,1-.448-.163c-3.828,5.212-7.7,10.383-11.523,15.6-.122-.082-.2-.163-.326-.244,4.439-6.515,8.877-13.03,13.4-19.5.285-.407.977-.57,1.71-.937V46.255ZM25.2,20.359c1.466-2.158.2-3.828-.652-5.66-.081-.041,0-.163.041-.855,1.588.244,3.095.407,4.561.733.2.041.448.9.325,1.221q-.977,2.687-2.2,5.252c-.244.489-.814.815-1.221,1.181C25.728,21.581,24.995,20.644,25.2,20.359Zm-8.917-5.334c1.548.652,2.28,1.588,1.507,3.624C17.177,17.224,16.729,16.124,16.281,15.025Z" transform="translate(75 65.511)"/>
  </g>
</svg>
